<svg width="87" height="61" viewBox="0 0 87 61" fill="none" xmlns="http://www.w3.org/2000/svg">
<path d="M18.2958 40.5947C17.8698 41.2129 18.0255 42.0595 18.6437 42.4854C19.2618 42.9114 20.1084 42.7558 20.5344 42.1376C20.5434 42.1247 20.5521 42.1115 20.5606 42.0982C25.2857 34.9462 33.2858 30.6441 41.8579 30.6454C42.6086 30.6454 43.2173 30.0368 43.2173 29.2861C43.2173 28.5354 42.6086 27.9267 41.8579 27.9267C32.3747 27.9243 23.5238 32.683 18.2958 40.5947Z" fill="black"/>
<path d="M85.6406 57.833H77.4844V56.1908C77.516 47.3839 73.9245 38.9517 67.5528 32.8721C67.0248 32.3382 66.1642 32.3335 65.6303 32.8612C65.0964 33.3892 65.0916 34.2498 65.6194 34.7837C65.6354 34.7999 65.6517 34.8157 65.6685 34.831C71.5045 40.4002 74.794 48.124 74.7655 56.1908V57.833H12.2344V56.1908C12.2524 39.8377 25.5048 26.5853 41.8579 26.5673H45.1421C47.6673 26.5656 50.1824 26.8854 52.6268 27.5189C53.3461 27.7342 54.1036 27.3257 54.3189 26.6064C54.5342 25.8871 54.1257 25.1296 53.4064 24.9143C53.3735 24.9045 53.34 24.8958 53.3064 24.8885C51.4289 24.4042 49.5117 24.0899 47.578 23.9492V19.7704C47.578 19.0197 46.9693 18.4111 46.2186 18.4111H40.7811C40.0304 18.4111 39.4217 19.0197 39.4217 19.7704V23.9492C22.5643 25.2402 9.53771 39.2839 9.51546 56.1908V57.833H1.35938C0.60866 57.833 0 58.4416 0 59.1923C0 59.943 0.60866 60.5517 1.35938 60.5517H85.6406C86.3913 60.5517 87 59.943 87 59.1923C87 58.4416 86.3913 57.833 85.6406 57.833ZM42.1406 21.1298H44.8594V23.8486H42.1406V21.1298Z" fill="black"/>
<path d="M57.5478 17.382C58.8134 18.5117 59.8125 19.4034 59.8125 21.2236C59.8125 23.0438 58.8134 23.9356 57.5478 25.072C55.6239 26.4164 54.4477 28.5904 54.375 30.9364C54.375 31.6871 54.9837 32.2957 55.7344 32.2957C56.4851 32.2957 57.0938 31.6871 57.0938 30.9364C57.0938 29.1162 58.0929 28.2244 59.3585 27.0948C61.2835 25.7483 62.4597 23.5718 62.5312 21.2236C62.4597 18.8758 61.2835 16.6998 59.3585 15.3539C58.0929 14.2242 57.0938 13.3325 57.0938 11.5136C57.0938 9.69477 58.0929 8.80438 59.3585 7.67474C61.2835 6.33015 62.4599 4.15481 62.5312 1.80768C62.5312 1.05696 61.9226 0.448303 61.1719 0.448303C60.4212 0.448303 59.8125 1.05696 59.8125 1.80768C59.8125 3.62516 58.8134 4.51555 57.5478 5.64519C55.6224 6.9903 54.446 9.16615 54.375 11.5136C54.4467 13.8609 55.6229 16.0366 57.5478 17.382Z" fill="black"/>
<path d="M65.704 17.382C66.9696 18.5117 67.9688 19.4034 67.9688 21.2236C67.9688 23.0438 66.9696 23.9424 65.704 25.0666C63.7786 26.4122 62.6023 28.5884 62.5312 30.9364C62.5312 31.6871 63.1399 32.2957 63.8906 32.2957C64.6413 32.2957 65.25 31.6871 65.25 30.9364C65.25 29.1162 66.2491 28.2244 67.5147 27.0948C69.4398 25.7483 70.616 23.5718 70.6875 21.2236C70.616 18.8758 69.4398 16.6998 67.5147 15.3539C66.2491 14.2242 65.25 13.3325 65.25 11.5136C65.25 9.69477 66.2491 8.80438 67.5147 7.67474C69.4398 6.33015 70.6161 4.15481 70.6875 1.80768C70.6875 1.05696 70.0788 0.448303 69.3281 0.448303C68.5774 0.448303 67.9688 1.05696 67.9688 1.80768C67.9688 3.62516 66.9696 4.51555 65.704 5.64519C63.7786 6.9903 62.6023 9.16615 62.5312 11.5136C62.603 13.8609 63.7792 16.0366 65.704 17.382Z" fill="black"/>
<path d="M73.8603 17.382C75.1259 18.5117 76.125 19.4034 76.125 21.2236C76.125 23.0438 75.1259 23.9424 73.8603 25.0666C71.9349 26.4122 70.7585 28.5884 70.6875 30.9364C70.6875 31.6871 71.2962 32.2957 72.0469 32.2957C72.7976 32.2957 73.4062 31.6871 73.4062 30.9364C73.4062 29.1162 74.4054 28.2244 75.671 27.0948C77.596 25.7483 78.7722 23.5718 78.8438 21.2236C78.7722 18.8758 77.596 16.6998 75.671 15.3539C74.4054 14.2242 73.4062 13.3325 73.4062 11.5136C73.4062 9.69477 74.4054 8.80438 75.671 7.67474C77.596 6.33015 78.7724 4.15481 78.8438 1.80768C78.8438 1.05696 78.2351 0.448303 77.4844 0.448303C76.7337 0.448303 76.125 1.05696 76.125 1.80768C76.125 3.62516 75.1259 4.51555 73.8603 5.64519C71.9349 6.9903 70.7585 9.16615 70.6875 11.5136C70.7592 13.8609 71.9354 16.0366 73.8603 17.382Z" fill="black"/>
</svg>
